<svg xmlns="http://www.w3.org/2000/svg" xmlns:xlink="http://www.w3.org/1999/xlink" width="451.69" height="513.483" viewBox="0 0 451.69 513.483">
  <defs>
    <clipPath id="clip-path">
      <path id="Trazado_254" data-name="Trazado 254" d="M730.389,139.218a9.516,9.516,0,1,1-13.457,0A9.517,9.517,0,0,1,730.389,139.218Z" transform="translate(-714.145 -136.432)" fill="none"/>
    </clipPath>
    <clipPath id="clip-path-2">
      <circle id="Elipse_14" data-name="Elipse 14" cx="9.516" cy="9.516" r="9.516" fill="none"/>
    </clipPath>
  </defs>
  <g id="Grupo_345" data-name="Grupo 345" transform="translate(0)">
    <path id="Trazado_185" data-name="Trazado 185" d="M654.48,256.556l-28.018,20.585s-25.533-20.21-33.775-36.772c-6.625-13.309-3.825-20.21-.986-22.043a2.915,2.915,0,0,1,1.36-.513,1.583,1.583,0,0,1,.611.02s4.831-7.2,10.765-6.329a7.632,7.632,0,0,1,1.893.552,1.438,1.438,0,0,0,.039-.158,8.868,8.868,0,0,1,10.016-6.447c.276.039.552.079.848.138a3.056,3.056,0,0,1,.414.079L602.8,169.191s-3.017-13.861,6.546-3.293c0,0,16.976,28.432,21.965,39.394,0,0,7.985-2.465,10.943,7.67,0,0,3.648,5.5,2.859,24.153C645.115,237.115,647.008,249.813,654.48,256.556Z" transform="translate(-588.614 -35.969)" fill="#ffcca9"/>
    <path id="Trazado_186" data-name="Trazado 186" d="M600.847,207.345c1.656-2.307,1.3-7.078-10.667-16.562a2.915,2.915,0,0,1,1.36-.513,36.16,36.16,0,0,1,9.247,9.07C603.568,203.165,602.464,205.767,600.847,207.345Z" transform="translate(-587.092 -8.426)" fill="#d88d64"/>
    <path id="Trazado_187" data-name="Trazado 187" d="M616.85,183.915s-16,9.691-12.982,16.905,12.982,0,12.982,0-9.928,5.126-11.136-.168S607.346,193.188,616.85,183.915Z" transform="translate(-574.16 -14.601)" fill="#d88d64"/>
    <path id="Trazado_188" data-name="Trazado 188" d="M605.434,206.491c2.189-1.991,2.8-6.98-8.794-19.421a7.632,7.632,0,0,1,1.893.552,1.446,1.446,0,0,0,.04-.158,35.145,35.145,0,0,1,8.242,11.022C608.963,202.824,607.327,205.21,605.434,206.491Z" transform="translate(-580.815 -11.535)" fill="#d88d64"/>
    <path id="Trazado_189" data-name="Trazado 189" d="M725.858,185.26c.8-1.274,31.443,14.107,65.868-6.006s14.311,191.66,14.311,191.66l-2.794,109.918-3.91,53.082H713.566l-17.6-167.063S713.891,204.216,725.858,185.26Z" transform="translate(-484.302 -20.439)" fill="#5dcec1"/>
    <path id="Trazado_190" data-name="Trazado 190" d="M833.563,215.477c-14.011-12.043-78.5-36.508-78.5-36.508l-10.527,18.808s3.415,233.275,1.652,281.327l-.024,53.778h78.706l.4-121.474c22.761-5.777,40.25-15.367,49.862-25.892,10.909-11.943,13.544-18.68,13.544-34.56S847.574,227.522,833.563,215.477Z" transform="translate(-437.108 -19.407)" fill="#fff"/>
    <path id="Trazado_191" data-name="Trazado 191" d="M667.344,341.463" transform="translate(-512.113 138.487)" fill="#fff"/>
    <path id="Trazado_192" data-name="Trazado 192" d="M818.26,531.859H732.767L748.3,300.244s-.276.71-.789,2.011v.02l-.02.02c-4.022,10.213-22.359,55.444-35.431,66.564-14.374,12.225-32.828,8.2-33.795,7.985-.02,0-.02,0-.039-.02-52.289-46.019-75.91-120.786-75.91-120.786a62.71,62.71,0,0,0,8.853-4c15.162-8.281,26.381-21.373,26.381-21.373,26.677,31.054,45.171,70.113,48.326,81.352,14.748-51.4,46.532-95.469,46.532-95.469,14.019-12.047,78.513-36.516,78.513-36.516V386.584s-.414.651-1.163,1.853c3.726,32.71,8.32,73.386,8.5,75.161C818.536,466.576,818.26,531.859,818.26,531.859Z" transform="translate(-575.296 -18.376)" fill="#fff"/>
    <path id="Trazado_193" data-name="Trazado 193" d="M783.665,282.614l-11.554,1.753c-14.752,1.284-20.21-10.085-33.239-8.4s-11.475,6.856-11.475,6.856c-8.634.231-6.361,12.193-6.361,12.193-4.083,6.073.166,13.09.166,13.09-2.973,4.206.988,10.57.988,10.57,1.11,6.925,9.508,12.645,18.538,13.6.3.035.611.051.919.075.323.022.645.047.97.057s.68,0,1.023,0c.479-.006.954-.026,1.431-.061.032,0,.061,0,.093,0h0c.028,0,.053-.01.081-.012.406-.034.813-.055,1.217-.11,10.9-1.485,40.932-13.642,40.932-13.642C787.867,295.13,783.665,282.614,783.665,282.614Z" transform="translate(-461.662 74.679)" fill="#ffcca9"/>
    <path id="Trazado_194" data-name="Trazado 194" d="M747.5,266.808c-4.022,10.213-22.359,55.444-35.431,66.564-14.374,12.224-32.828,8.2-33.795,7.985-.02,0-.02,0-.039-.02-52.289-46.019-75.91-120.786-75.91-120.786a62.708,62.708,0,0,0,8.853-4c11.534,27.761,43.515,98.821,75.654,116.823,0,0,16.01,1.853,25.573-8.2C721.8,315.253,746.727,268.267,747.5,266.808Z" transform="translate(-575.296 17.11)" fill="#8fa7d7" opacity="0.5"/>
    <g id="Grupo_244" data-name="Grupo 244" transform="translate(340.395 279.91)">
      <g id="Grupo_243" data-name="Grupo 243">
        <path id="Trazado_195" data-name="Trazado 195" d="M792.51,273.944,778.1,282.489a1.077,1.077,0,0,1-1.077.012L761.8,273.94a1.076,1.076,0,0,1-.548-.937v-31.92a1.077,1.077,0,0,1,1.077-1.077h29.63a1.075,1.075,0,0,1,1.075,1.077v31.936A1.071,1.071,0,0,1,792.51,273.944Z" transform="translate(-761.255 -240.007)" fill="#d5e1ed"/>
      </g>
    </g>
    <g id="Grupo_246" data-name="Grupo 246" transform="translate(340.395 286.361)">
      <g id="Grupo_245" data-name="Grupo 245">
        <path id="Trazado_196" data-name="Trazado 196" d="M792.51,270.764,778.1,279.31a1.077,1.077,0,0,1-1.077.012L761.8,270.76a1.076,1.076,0,0,1-.548-.937v-25.47a1.076,1.076,0,0,1,1.077-1.075h29.63a1.075,1.075,0,0,1,1.075,1.075V269.84A1.071,1.071,0,0,1,792.51,270.764Z" transform="translate(-761.255 -243.279)" fill="#b8ddff"/>
      </g>
    </g>
    <g id="Grupo_248" data-name="Grupo 248" transform="translate(309.077 141.608)" opacity="0.5">
      <g id="Grupo_247" data-name="Grupo 247" transform="translate(0 0)">
        <path id="Trazado_197" data-name="Trazado 197" d="M745.371,490.046V169.863s2.711,4.975,12.619,15.018C770.382,197.443,781,216.4,781,216.4l-22.375-4.33,29.065,29.246L765.821,369.844l-15.474,2.309,9.789,31.1Z" transform="translate(-745.371 -169.863)" fill="#8fa7d7"/>
      </g>
    </g>
    <g id="Grupo_249" data-name="Grupo 249" transform="translate(196.071 141.416)" opacity="0.5">
      <path id="Trazado_198" data-name="Trazado 198" d="M717.754,184.782c-12.392,12.562-23.008,31.517-23.008,31.517l22.375-4.33-29.065,29.246,46.885,242.406-4.568-313.856S727.662,174.739,717.754,184.782Z" transform="translate(-688.057 -169.766)" fill="#8fa7d7"/>
    </g>
    <g id="Grupo_251" data-name="Grupo 251" transform="translate(304.215 139.135)">
      <g id="Grupo_250" data-name="Grupo 250" transform="translate(0 0)">
        <path id="Trazado_199" data-name="Trazado 199" d="M747.767,477.855h0L742.9,168.609s5.032,2.159,14.939,12.2c12.392,12.562,20.685,34.333,20.685,34.333l-22.373-4.33,29.065,29.248L764.392,372.3l-10.671,2.463,7.812,15.683Z" transform="translate(-742.905 -168.609)" fill="#fff"/>
      </g>
    </g>
    <g id="Grupo_253" data-name="Grupo 253" transform="translate(200.641 139.135)">
      <g id="Grupo_252" data-name="Grupo 252" transform="translate(0 0)">
        <path id="Trazado_200" data-name="Trazado 200" d="M732.689,474.689V168.609s-5.032,2.159-14.94,12.2c-12.392,12.562-20.685,34.333-20.685,34.333l22.373-4.33-29.063,29.248Z" transform="translate(-690.375 -168.609)" fill="#fff"/>
      </g>
    </g>
    <path id="Trazado_201" data-name="Trazado 201" d="M746.567,338.915a197.341,197.341,0,0,1-34.668-2.979l0-1.8c.335.067,34.331,6.777,65.994-.087v1.8A148.513,148.513,0,0,1,746.567,338.915Z" transform="translate(-468.819 131.285)" fill="#38a595"/>
    <g id="Grupo_254" data-name="Grupo 254" transform="translate(242.956 183.4)">
      <path id="Trazado_202" data-name="Trazado 202" d="M742.316,200.831a75.4,75.4,0,0,1-30.48-6.258V192.41c.306.15,31.521,14.977,61.955-1.351l.034,2.1A65.026,65.026,0,0,1,742.316,200.831Z" transform="translate(-711.836 -191.059)" fill="#38a595"/>
    </g>
    <path id="Trazado_203" data-name="Trazado 203" d="M643.7,284.1s-3.993-23.367,3.092-38.955C646.793,245.143,643.266,278.691,643.7,284.1Z" transform="translate(-536.175 44.894)" fill="#8fa7d7" opacity="0.5"/>
    <path id="Trazado_204" data-name="Trazado 204" d="M652.29,265.7c-.331-1.033-6.238-10.077-7.112-17.745l8.764,16.414Z" transform="translate(-533.651 47.625)" fill="#8fa7d7" opacity="0.5"/>
    <path id="Trazado_205" data-name="Trazado 205" d="M791.066,296.857l-11.339,3.273,1.731,10.162,9.608-3.71Z" transform="translate(-402.911 95.144)" fill="#8fa7d7" opacity="0.5"/>
    <path id="Trazado_206" data-name="Trazado 206" d="M816.634,295.98l.008,0-8.622-70.608,2.678,72.846c-28.925,10.984-60.087,24.1-60.087,24.1s16.554-4.265,36.88-9.685S845.6,286,845.6,286C837.893,288.269,827.6,291.891,816.634,295.98Z" transform="translate(-431.204 25.678)" fill="#8fa7d7" opacity="0.5"/>
    <path id="Trazado_207" data-name="Trazado 207" d="M853.957,226.27s18.209,49.008,18.4,80.828c.071,11.834-6.686,21.61-11.548,25.145C813.4,366.7,754.949,367.928,754.949,367.928s-.483,7.895-1.6,9.385c0,0,103.474-6.854,123.256-51.664,0,0,4.5-7.142,3.474-18.362C878.156,286.136,866.4,256.439,853.957,226.27Z" transform="translate(-428.541 26.555)" fill="#8fa7d7" opacity="0.1"/>
    <path id="Trazado_208" data-name="Trazado 208" d="M782.749,369.055c3.354-34.083-6.445-55.081-5.308-55.6,11.067-4.986,38.564-15.8,60.716-24.386l.945-50.205L725.95,234.29l-2.569,167.132,112.747-4.59.688-36.47A425,425,0,0,1,782.749,369.055Z" transform="translate(-457.662 34.348)" fill="#ae376d"/>
    <path id="Trazado_209" data-name="Trazado 209" d="M777.909,237.7l.054-2.032-30.695-1.755-.053,2.545Z" transform="translate(-434.502 33.979)" fill="#a1b5bf"/>
    <path id="Trazado_210" data-name="Trazado 210" d="M749.861,237.228a.641.641,0,1,1-.641-.639A.64.64,0,0,1,749.861,237.228Z" transform="translate(-433.177 36.582)" fill="#a1b5bf"/>
    <path id="Trazado_211" data-name="Trazado 211" d="M761.947,237.628a.39.39,0,1,1-.39-.39A.391.391,0,0,1,761.947,237.628Z" transform="translate(-420.946 37.212)" fill="#a1b5bf"/>
    <g id="Grupo_256" data-name="Grupo 256" transform="translate(311.669 76.543)">
      <g id="Grupo_255" data-name="Grupo 255">
        <path id="Trazado_212" data-name="Trazado 212" d="M758.074,159.162c-3.224,11.619-8.92,20.519-11.388,19.835,0,0,1.739-7.4,4.06-19.232,2.693-13.725,3.074-23.4,8.691-22.882C761.988,137.12,761.3,147.543,758.074,159.162Z" transform="translate(-746.686 -136.864)" fill="#f0ba92"/>
      </g>
    </g>
    <g id="Grupo_258" data-name="Grupo 258" transform="translate(311.669 78.304)" opacity="0.6">
      <g id="Grupo_257" data-name="Grupo 257">
        <path id="Trazado_213" data-name="Trazado 213" d="M753.756,153.485c-2.932,11.7-4.6,25.328-7.07,24.644,0,0,2.463-10.551,4.783-22.383,2.691-13.727,2.417-18.473,8.035-17.952C759.5,137.795,757.319,139.277,753.756,153.485Z" transform="translate(-746.686 -137.757)" fill="#d88d64"/>
      </g>
    </g>
    <g id="Grupo_260" data-name="Grupo 260" transform="translate(221.606 76.542)">
      <g id="Grupo_259" data-name="Grupo 259">
        <path id="Trazado_214" data-name="Trazado 214" d="M703.922,159.162c3.224,11.619,8.573,20.594,11.043,19.908,0,0-2.626-9.584-4.188-19.656-2.143-13.824-2.6-23.051-8.218-22.531C700.008,137.121,700.7,147.543,703.922,159.162Z" transform="translate(-701.008 -136.863)" fill="#f0ba92"/>
      </g>
    </g>
    <g id="Grupo_262" data-name="Grupo 262" transform="translate(222.746 78.379)" opacity="0.6">
      <g id="Grupo_261" data-name="Grupo 261">
        <path id="Trazado_215" data-name="Trazado 215" d="M705.943,152.191c2.932,11.7,5.99,26.675,8.461,25.989,0,0-2.626-12.039-4.947-23.871-2.693-13.725-2.254-16.982-7.871-16.462C701.586,137.846,702.382,137.983,705.943,152.191Z" transform="translate(-701.586 -137.795)" fill="#d88d64"/>
      </g>
    </g>
    <g id="Grupo_264" data-name="Grupo 264" transform="translate(242.944 132.95)">
      <g id="Grupo_263" data-name="Grupo 263">
        <path id="Trazado_216" data-name="Trazado 216" d="M773.528,198.88S769.277,210.1,742.466,210.1s-30.636-10.547-30.636-10.547V165.472H773.1Z" transform="translate(-711.83 -165.472)" fill="#f0ba92"/>
      </g>
    </g>
    <g id="Grupo_266" data-name="Grupo 266" transform="translate(242.944 124.018)" opacity="0.6">
      <g id="Grupo_265" data-name="Grupo 265" transform="translate(0 0)">
        <path id="Trazado_217" data-name="Trazado 217" d="M773.14,178.531c-5.531,11.558-27.178,20.636-30.675,20.636s-21.882-6.972-30.634-20.44V160.942H773.1Z" transform="translate(-711.83 -160.942)" fill="#d88d64"/>
      </g>
    </g>
    <g id="Grupo_268" data-name="Grupo 268" transform="translate(224.341 20.219)">
      <g id="Grupo_267" data-name="Grupo 267">
        <path id="Trazado_218" data-name="Trazado 218" d="M789.724,206.755c-10.211,33.554-38.091,34.116-38.091,34.116s-29.447-.079-38.247-34.919c-5.8-22.986-19.776-58.191-3.027-84.278,9.478-14.764,78.4-20.665,86.516,0S795.71,187.077,789.724,206.755Z" transform="translate(-702.395 -108.298)" fill="#ffcca9"/>
      </g>
    </g>
    <g id="Grupo_269" data-name="Grupo 269" transform="translate(257.77 116.362)">
      <path id="Trazado_219" data-name="Trazado 219" d="M749.837,157.826c1.128.942-2.35,13.078-14.963,13.208-10.7.112-16.063-10.888-15.1-12.526,1.2-2.031,5.464-.659,14.665-.659S748.609,156.8,749.837,157.826Z" transform="translate(-719.042 -156.751)" fill="#fff"/>
      <path id="Trazado_220" data-name="Trazado 220" d="M735.025,171.969c-6.832,0-11.848-4.462-14.277-8.664-.966-1.672-1.788-3.813-1.2-4.807.98-1.66,3.265-1.516,7.423-1.256,2.064.13,4.633.292,7.78.292,3.758,0,6.769-.174,9.188-.315,3.794-.215,5.694-.327,6.607.436h0c.864.72.2,2.918-.124,3.829a15.924,15.924,0,0,1-15.233,10.486ZM723.44,158.333c-1.5,0-2.453.185-2.818.8-.134.288.136,1.909,1.6,4.194,1.12,1.741,5.339,7.392,12.8,7.392h.152a14.647,14.647,0,0,0,12.67-6.832c1.6-2.512,2.007-4.8,1.847-5.31-.613-.4-2.861-.27-5.684-.108-2.435.14-5.464.315-9.259.315-3.184,0-5.777-.164-7.859-.3C725.53,158.4,724.376,158.333,723.44,158.333Z" transform="translate(-719.349 -157.059)" fill="#d3976e"/>
    </g>
    <g id="Grupo_270" data-name="Grupo 270" transform="translate(270.784 89.825)">
      <path id="Trazado_221" data-name="Trazado 221" d="M728.789,160.969a6.173,6.173,0,0,1-2.439-7.388c1.149-3.4,1.307-9.916,1.309-9.981l1.25.028c-.006.274-.164,6.771-1.374,10.353a4.922,4.922,0,0,0,1.984,5.97Z" transform="translate(-725.95 -143.6)" fill="#d88d64"/>
    </g>
    <path id="Trazado_222" data-name="Trazado 222" d="M783.665,282.614l-11.554,1.753c-14.752,1.284-20.21-10.085-33.239-8.4s-11.475,6.856-11.475,6.856c-8.634.231-6.361,12.193-6.361,12.193-4.083,6.073.166,13.09.166,13.09-2.973,4.206.988,10.57.988,10.57,1.11,6.925,9.508,12.645,18.538,13.6.3.035.611.051.919.075.323.022.645.047.97.057s.68,0,1.023,0c.479-.006.954-.026,1.431-.061.032,0,.061,0,.093,0h0c.028,0,.053-.01.081-.012.406-.034.813-.055,1.217-.11,10.9-1.485,40.932-13.642,40.932-13.642C787.867,295.13,783.665,282.614,783.665,282.614Z" transform="translate(-461.662 74.679)" fill="#ffcca9"/>
    <path id="Trazado_223" data-name="Trazado 223" d="M723.434,279.36s7.483,1.467,11.531,1.743a153.3,153.3,0,0,1,15.653,2.374s-12.161-1.017-15.736-1.244C732.162,282.059,722.3,279.466,723.434,279.36Z" transform="translate(-457.699 78.142)" fill="#d88d64"/>
    <path id="Trazado_224" data-name="Trazado 224" d="M729.014,291.637s-5.495-2.246-7.1-4.434a10.2,10.2,0,0,1-1.713-4.511,18.51,18.51,0,0,0,.114,5.631Z" transform="translate(-460.939 81.372)" fill="#d88d64"/>
    <path id="Trazado_225" data-name="Trazado 225" d="M729.891,298.108a47.761,47.761,0,0,1-7.345-4,11.312,11.312,0,0,1-3.222-4.669,13.51,13.51,0,0,0,1.867,5.355Z" transform="translate(-461.603 87.928)" fill="#d88d64"/>
    <path id="Trazado_226" data-name="Trazado 226" d="M730.5,303.656a47.741,47.741,0,0,1-7.344-4,13.111,13.111,0,0,1-3.437-5.01,14.865,14.865,0,0,0,2.082,5.7Z" transform="translate(-461.221 92.986)" fill="#d88d64"/>
    <path id="Trazado_227" data-name="Trazado 227" d="M724.481,277.809s-1.321,3.044,1.067,3.458l.385.546-2.536-.946A3.927,3.927,0,0,1,724.481,277.809Z" transform="translate(-457.662 76.635)" fill="#d88d64"/>
    <g id="Grupo_275" data-name="Grupo 275" transform="translate(203.901 160.575)" opacity="0.1">
      <g id="Grupo_272" data-name="Grupo 272" transform="translate(0 21.482)">
        <g id="Grupo_271" data-name="Grupo 271">
          <path id="Trazado_228" data-name="Trazado 228" d="M713.58,223.843l.548-33.465-2.8.542-.548,33.132c-15.158,2.595-18.195,29.522-18.713,63.855l0,.016-.041,1.916c0,7.011,3.732,8.762,8.492,9.5a42.182,42.182,0,0,0,5.243.424,2.855,2.855,0,0,0,5.469-1.153v-2.334a2.86,2.86,0,0,0-2.861-2.861,2.826,2.826,0,0,0-2.782,2.469c-3.8-.187-8.484-1.006-10-3.811-1.485-2.743-.621-8.559-.489-12.487,1.006-30.021,4.265-52.839,18.2-52.839,13.912,0,20.417,22.755,21.432,52.715.128,3.764.781,9.281-.623,12.086-1.274,2.542-4.7,3.659-8.108,4.121a2.854,2.854,0,0,0-5.588,1.094l.28,2.317a2.859,2.859,0,0,0,5.6.4c5.46-.755,11.641-3.171,11.444-10.328l-.035-2.814c.01-.043.026-.087.035-.13C737.055,251.108,730.2,224.185,713.58,223.843Z" transform="translate(-692.028 -190.378)" fill="#0e3368"/>
        </g>
      </g>
      <g id="Grupo_274" data-name="Grupo 274" transform="translate(122.438)">
        <g id="Grupo_273" data-name="Grupo 273">
          <path id="Trazado_229" data-name="Trazado 229" d="M789.033,261.478c-2.82-66.316-33.592-81.382-34.907-81.995,0,0,1.783,1.416,9.5,12.1,8.035,11.12,20.508,31.159,22.193,69.981a13.612,13.612,0,1,0,3.218-.083Z" transform="translate(-754.126 -179.483)" fill="#0e3368"/>
        </g>
      </g>
      <path id="Trazado_230" data-name="Trazado 230" d="M831.56,299,831,335.751,728.792,339.66h0l-.156,12.917,109.359-4.635V297.41Z" transform="translate(-656.457 -64.894)" fill="#0e3368"/>
    </g>
    <g id="Grupo_277" data-name="Grupo 277" transform="translate(200.026 212.279)">
      <g id="Grupo_276" data-name="Grupo 276">
        <path id="Trazado_231" data-name="Trazado 231" d="M735.769,267.85c-.684-35.329-5.974-62.144-22.85-62.144-17.148,0-22.272,27.694-22.818,63.843l0,.016-.041,1.916c0,7.011,3.732,8.76,8.492,9.5a42.189,42.189,0,0,0,5.243.424,2.855,2.855,0,0,0,5.469-1.153v-2.336a2.86,2.86,0,0,0-2.861-2.859,2.827,2.827,0,0,0-2.782,2.469c-3.8-.187-8.484-1.006-10-3.811-1.485-2.743-.621-8.559-.489-12.487,1.005-30.021,5.885-52.6,19.818-52.6,13.912,0,18.8,22.519,19.813,52.479.128,3.762.781,9.281-.623,12.086-1.274,2.542-4.7,3.659-8.108,4.121a2.854,2.854,0,0,0-5.588,1.094l.28,2.317a2.859,2.859,0,0,0,5.6.4c5.46-.755,11.641-3.171,11.444-10.328l-.036-2.814C735.743,267.937,735.759,267.893,735.769,267.85Z" transform="translate(-690.063 -205.706)" fill="#383f47"/>
      </g>
    </g>
    <g id="Grupo_279" data-name="Grupo 279" transform="translate(220.398 182.598)">
      <g id="Grupo_278" data-name="Grupo 278">
        <path id="Trazado_232" data-name="Trazado 232" d="M703.2,221.793h-2.8v-30.6l2.8-.542Z" transform="translate(-700.395 -190.653)" fill="#383f47"/>
      </g>
    </g>
    <g id="Grupo_281" data-name="Grupo 281" transform="translate(319.199 151.381)">
      <g id="Grupo_280" data-name="Grupo 280">
        <path id="Trazado_233" data-name="Trazado 233" d="M782.257,258.252C780.808,218.53,768.13,198.167,760,186.914c-7.713-10.679-9.5-12.094-9.5-12.094,1.325.617,32.515,15.854,34.974,83.314Z" transform="translate(-750.505 -174.82)" fill="#383f47"/>
      </g>
    </g>
    <g id="Grupo_283" data-name="Grupo 283" transform="translate(319.154 151.336)">
      <g id="Grupo_282" data-name="Grupo 282">
        <path id="Trazado_234" data-name="Trazado 234" d="M784.081,259.024c-2.161-41.3-12.027-59.393-20.157-70.646C756.212,177.7,750.482,174.8,750.482,174.8c1.325.617,32.561,17.122,35.019,84.58Z" transform="translate(-750.482 -174.797)" fill="#1a2026"/>
      </g>
    </g>
    <g id="Grupo_286" data-name="Grupo 286" transform="translate(338.739 232.911)">
      <g id="Grupo_284" data-name="Grupo 284" transform="translate(0.396 0.398)">
        <path id="Trazado_235" data-name="Trazado 235" d="M787.938,230.032a13.661,13.661,0,1,1-13.66-13.66A13.659,13.659,0,0,1,787.938,230.032Z" transform="translate(-760.616 -216.372)" fill="#bcbcbc"/>
      </g>
      <g id="Grupo_285" data-name="Grupo 285">
        <path id="Trazado_236" data-name="Trazado 236" d="M774.473,244.286a14.058,14.058,0,1,1,14.056-14.056A14.075,14.075,0,0,1,774.473,244.286Zm0-27.32a13.263,13.263,0,1,0,13.262,13.264A13.278,13.278,0,0,0,774.473,216.967Z" transform="translate(-760.415 -216.17)" fill="#444"/>
      </g>
    </g>
    <g id="Grupo_288" data-name="Grupo 288" transform="translate(356.121 242.16)" opacity="0.3">
      <g id="Grupo_287" data-name="Grupo 287">
        <path id="Trazado_237" data-name="Trazado 237" d="M772.681,238.03l-3.451-7.258,2.435-6.686,7.536-3.226s4.4,9.663-6.52,17.169Z" transform="translate(-769.231 -220.861)" fill="#fff"/>
      </g>
    </g>
    <g id="Grupo_290" data-name="Grupo 290" transform="translate(346.643 241.511)">
      <g id="Grupo_289" data-name="Grupo 289">
        <path id="Trazado_238" data-name="Trazado 238" d="M776.706,226.983a6.148,6.148,0,1,1-6.14-6.451A6.3,6.3,0,0,1,776.706,226.983Z" transform="translate(-764.424 -220.532)" fill="#635b53"/>
      </g>
    </g>
    <g id="Grupo_292" data-name="Grupo 292" transform="translate(338.6 232.828)" opacity="0.4">
      <g id="Grupo_291" data-name="Grupo 291">
        <path id="Trazado_239" data-name="Trazado 239" d="M772.384,216.128l.753,8.289-4.6,5.432-8.185.42s-.81-10.872,12.029-14.141Z" transform="translate(-760.345 -216.128)" fill="#fff"/>
      </g>
    </g>
    <g id="Grupo_295" data-name="Grupo 295" transform="translate(346.939 241.113)">
      <g id="Grupo_293" data-name="Grupo 293" transform="translate(0.398 0.398)">
        <path id="Trazado_240" data-name="Trazado 240" d="M775.693,225.99a5.459,5.459,0,1,1-5.458-5.458A5.46,5.46,0,0,1,775.693,225.99Z" transform="translate(-764.776 -220.532)" fill="#d3d3d3"/>
      </g>
      <g id="Grupo_294" data-name="Grupo 294">
        <path id="Trazado_241" data-name="Trazado 241" d="M770.432,232.042a5.856,5.856,0,1,1,5.856-5.854A5.863,5.863,0,0,1,770.432,232.042Zm0-10.915a5.06,5.06,0,1,0,5.061,5.061A5.067,5.067,0,0,0,770.432,221.127Z" transform="translate(-764.574 -220.33)" fill="#a8a6a0"/>
      </g>
    </g>
    <g id="Grupo_297" data-name="Grupo 297" transform="translate(350.64 245.466)">
      <g id="Grupo_296" data-name="Grupo 296">
        <path id="Trazado_242" data-name="Trazado 242" d="M770.741,224.683a2.145,2.145,0,1,1-2.145-2.145A2.145,2.145,0,0,1,770.741,224.683Z" transform="translate(-766.451 -222.538)" fill="#bababa"/>
      </g>
    </g>
    <g id="Grupo_299" data-name="Grupo 299" transform="translate(350.639 244.824)">
      <g id="Grupo_298" data-name="Grupo 298">
        <circle id="Elipse_13" data-name="Elipse 13" cx="2.145" cy="2.145" r="2.145" fill="#fff"/>
      </g>
    </g>
    <g id="Grupo_301" data-name="Grupo 301" transform="translate(214.56 282.827)">
      <g id="Grupo_300" data-name="Grupo 300">
        <rect id="Rect치ngulo_30" data-name="Rect치ngulo 30" width="2.36" height="5.527" rx="0.446" fill="#aaa9a2"/>
      </g>
    </g>
    <g id="Grupo_303" data-name="Grupo 303" transform="translate(230.067 282.728)">
      <g id="Grupo_302" data-name="Grupo 302" transform="translate(0 0)">
        <rect id="Rect치ngulo_31" data-name="Rect치ngulo 31" width="2.36" height="5.527" rx="0.446" transform="matrix(0.996, -0.094, 0.094, 0.996, 0, 0.222)" fill="#aaa9a2"/>
      </g>
    </g>
    <g id="Grupo_305" data-name="Grupo 305" transform="translate(348.029 242.284)" opacity="0.4">
      <g id="Grupo_304" data-name="Grupo 304">
        <path id="Trazado_243" data-name="Trazado 243" d="M768.491,220.924a4.76,4.76,0,0,0-3.364,3.955l3.066.227.81-.81Z" transform="translate(-765.127 -220.924)" fill="#fff"/>
      </g>
    </g>
    <g id="Grupo_307" data-name="Grupo 307" transform="translate(354.071 246.101)" opacity="0.4">
      <g id="Grupo_306" data-name="Grupo 306">
        <path id="Trazado_244" data-name="Trazado 244" d="M769.837,227.734a4.761,4.761,0,0,0,1.79-4.874l-2.956.848-.481,1.041Z" transform="translate(-768.191 -222.86)" fill="#fff"/>
      </g>
    </g>
    <g id="Grupo_309" data-name="Grupo 309" transform="translate(221.606 26.112)">
      <g id="Grupo_308" data-name="Grupo 308">
        <path id="Trazado_245" data-name="Trazado 245" d="M708.558,180.534s-5.9-23.351-6.946-35.143-2.289-27.629,11-33.02,9.2,11.071,9.2,11.071S711.3,130.508,709.2,148.2C708.059,157.816,708.558,180.534,708.558,180.534Z" transform="translate(-701.008 -111.286)" fill="#2a445d"/>
      </g>
    </g>
    <g id="Grupo_311" data-name="Grupo 311" transform="translate(304.273 26.112)">
      <g id="Grupo_310" data-name="Grupo 310">
        <path id="Trazado_246" data-name="Trazado 246" d="M756.136,180.181s6.54-23,7.591-34.79,2.289-27.629-11-33.02-9.2,11.071-9.2,11.071,10.509,7.067,12.611,24.761C757.279,157.816,756.136,180.181,756.136,180.181Z" transform="translate(-742.934 -111.286)" fill="#2a445d"/>
      </g>
    </g>
    <g id="Grupo_313" data-name="Grupo 313" transform="translate(232.977 0)">
      <g id="Grupo_312" data-name="Grupo 312">
        <path id="Trazado_247" data-name="Trazado 247" d="M780.422,141.973s-16.185,2.579-27.034-2.518c-3.176-1.493-18.595,5.067-25.681,3.744-13.565-2.538-19.522-13.577-19.79-14.713-.781-3.322-4.028-8.054,5.779-15.411,13.567-10.174,30.3-7.705,33.1-10.683s5.617-4.8,11.034-4.255c14.535,1.453,15.247,9.981,23.424,11.26,10.637,1.664,14.228,5.955,14.92,14.886C797.489,141.279,780.422,141.973,780.422,141.973Z" transform="translate(-706.775 -98.043)" fill="#2a445d"/>
      </g>
    </g>
    <g id="Grupo_315" data-name="Grupo 315" transform="translate(241.124 2.073)">
      <g id="Grupo_314" data-name="Grupo 314">
        <path id="Trazado_248" data-name="Trazado 248" d="M745.583,99.094s-4.553,3.269-15.994,16.58-17.4,12.493-18.682,12.725c0,0,9.874,1.7,20.316-12.025S745.583,99.094,745.583,99.094Z" transform="translate(-710.907 -99.094)" fill="#1f384c"/>
      </g>
    </g>
    <g id="Grupo_317" data-name="Grupo 317" transform="translate(293.751 35.775)">
      <g id="Grupo_316" data-name="Grupo 316">
        <path id="Trazado_249" data-name="Trazado 249" d="M737.6,123.9s19.09,2.256,27.408-7.717c0,0-1.751,10.43-26.971,7.893Z" transform="translate(-737.598 -116.187)" fill="#1f384c"/>
      </g>
    </g>
    <g id="Grupo_319" data-name="Grupo 319" transform="translate(233.504 24.489)">
      <g id="Grupo_318" data-name="Grupo 318">
        <path id="Trazado_250" data-name="Trazado 250" d="M735.9,129.744c-22.495,3.145-28.962-15.421-28.854-15.078,3.543,11.264,12.5,15.6,19.05,17.288a29.647,29.647,0,0,0,5.858,1c1.059.083,1.711.081,1.711.081l.041-.012c21.511.187,38.925-22.56,38.925-22.56C758.032,123.029,745.081,127.934,735.9,129.744Z" transform="translate(-707.042 -110.463)" fill="#1f384c"/>
      </g>
    </g>
    <g id="Grupo_322" data-name="Grupo 322" transform="translate(247.509 75.692)">
      <g id="Grupo_321" data-name="Grupo 321">
        <g id="Grupo_320" data-name="Grupo 320" clip-path="url(#clip-path)">
          <path id="Trazado_251" data-name="Trazado 251" d="M720.5,150.218l7.432-7.432v7.432Z" transform="translate(-707.971 -130.258)" fill="#fff"/>
          <path id="Trazado_252" data-name="Trazado 252" d="M717.569,156.85l-3.9-3.9v-9.562l7.432-7.432h9.562l3.9,3.9v9.562l-7.432,7.432Z" transform="translate(-714.603 -136.89)" fill="#fff"/>
          <path id="Trazado_253" data-name="Trazado 253" d="M721.106,135.961l-7.432,7.432v-7.432Z" transform="translate(-714.603 -136.89)" fill="#fff"/>
        </g>
      </g>
    </g>
    <g id="Grupo_325" data-name="Grupo 325" transform="translate(281.44 76.351)">
      <g id="Grupo_324" data-name="Grupo 324">
        <g id="Grupo_323" data-name="Grupo 323" clip-path="url(#clip-path-2)">
          <path id="Trazado_255" data-name="Trazado 255" d="M737.708,150.552l7.432-7.432v7.432Z" transform="translate(-725.18 -130.592)" fill="#fff"/>
          <path id="Trazado_256" data-name="Trazado 256" d="M734.778,157.184l-3.9-3.9v-9.562l7.432-7.432h9.562l3.9,3.9v9.562l-7.432,7.432Z" transform="translate(-731.812 -137.224)" fill="#fff"/>
          <path id="Trazado_257" data-name="Trazado 257" d="M738.315,136.295l-7.432,7.432v-7.432Z" transform="translate(-731.812 -137.224)" fill="#fff"/>
        </g>
      </g>
    </g>
    <g id="Grupo_327" data-name="Grupo 327" transform="translate(289.193 64.972)">
      <g id="Grupo_326" data-name="Grupo 326">
        <path id="Trazado_258" data-name="Trazado 258" d="M746.838,137.935a12.66,12.66,0,0,0-9.235-2.25,2.05,2.05,0,0,1-2.26-2.516h0a2.044,2.044,0,0,1,1.347-1.493c4.635-1.443,9.291-.668,12.85,3.015a2.025,2.025,0,0,1,.479,1.869l-.031.134A2.052,2.052,0,0,1,746.838,137.935Z" transform="translate(-735.287 -130.995)" fill="#2a445d"/>
      </g>
    </g>
    <g id="Grupo_332" data-name="Grupo 332" transform="translate(254.617 82.441)">
      <g id="Grupo_329" data-name="Grupo 329" transform="translate(33.943 0.249)">
        <g id="Grupo_328" data-name="Grupo 328">
          <ellipse id="Elipse_15" data-name="Elipse 15" cx="2.408" cy="3.065" rx="2.408" ry="3.065" fill="#210601"/>
        </g>
      </g>
      <g id="Grupo_331" data-name="Grupo 331">
        <g id="Grupo_330" data-name="Grupo 330">
          <path id="Trazado_259" data-name="Trazado 259" d="M720.157,139.855c-1.329,0-2.407,1.372-2.407,3.064s1.079,3.066,2.407,3.066,2.408-1.372,2.408-3.066S721.488,139.855,720.157,139.855Z" transform="translate(-717.75 -139.855)" fill="#210601"/>
        </g>
      </g>
    </g>
    <g id="Grupo_334" data-name="Grupo 334" transform="translate(224.538 75.333)">
      <g id="Grupo_333" data-name="Grupo 333">
        <path id="Trazado_260" data-name="Trazado 260" d="M778.555,143.551a10.116,10.116,0,0,0-19.644,1.56l-.012.006a9.551,9.551,0,0,0-13.934-.548,10.129,10.129,0,0,0-19.616-1.266c-16.9-5.986-21.064-6.773-22.182-6.564-.333.063-.617.564-.672.842l.87.353a1.629,1.629,0,0,1,.174-.221c1.469-.17,11.978,3.249,21.493,6.617a10.034,10.034,0,0,0-.223,2.094,10.139,10.139,0,0,0,18.952,5.044,2.943,2.943,0,0,0,.862-.29,2.746,2.746,0,0,0,.788-.588,3.232,3.232,0,0,0,.795-1.723,4.906,4.906,0,0,0-.6-3.405,8.467,8.467,0,0,1,12.562.448,5.093,5.093,0,0,0-.471,3.206,3.22,3.22,0,0,0,.795,1.723,2.739,2.739,0,0,0,.787.588,2.92,2.92,0,0,0,.863.292,10.144,10.144,0,0,0,18.729-7.139c9.661-3.421,20.157-6.911,21.352-6.621-.039-.012,1.08-.444,1.08-.444C800.971,136.8,800.514,135.773,778.555,143.551ZM734.98,155.519a9.1,9.1,0,1,1,9.1-9.1A9.1,9.1,0,0,1,734.98,155.519Zm10.138-6.144a1.88,1.88,0,0,1-.436.6,1.783,1.783,0,0,1-.252.152,10.068,10.068,0,0,0,.69-3.4,2.1,2.1,0,0,1,.217.6A4.3,4.3,0,0,1,745.119,149.376Zm14.1.848a1.879,1.879,0,0,1-.436-.6,4.325,4.325,0,0,1-.219-2.047,2.163,2.163,0,0,1,.217-.6,10.136,10.136,0,0,0,.692,3.4A1.944,1.944,0,0,1,759.22,150.223Zm9.7,5.544a9.1,9.1,0,1,1,9.1-9.1A9.106,9.106,0,0,1,768.923,155.768Z" transform="translate(-702.495 -136.25)" fill="#302420"/>
      </g>
    </g>
    <g id="Grupo_336" data-name="Grupo 336" transform="translate(244.011 64.723)">
      <g id="Grupo_335" data-name="Grupo 335">
        <path id="Trazado_261" data-name="Trazado 261" d="M715.609,137.81a12.668,12.668,0,0,1,9.235-2.252,2.049,2.049,0,0,0,2.259-2.514h0a2.037,2.037,0,0,0-1.347-1.493c-4.637-1.443-9.291-.67-12.849,3.013a2.03,2.03,0,0,0-.479,1.871l.032.134A2.052,2.052,0,0,0,715.609,137.81Z" transform="translate(-712.371 -130.869)" fill="#2a445d"/>
      </g>
    </g>
    <g id="Grupo_338" data-name="Grupo 338" transform="translate(202.601 213.967)">
      <g id="Grupo_337" data-name="Grupo 337">
        <path id="Trazado_262" data-name="Trazado 262" d="M691.5,268.325s-2.652-53.936,15.561-60.941a13.06,13.06,0,0,1,10.917.875c9.645,5.085,12.043,23.552,12.784,31.934.958,10.858,2.437,26.651.519,31.072,0,0,.678-25.09-3.525-43.391s-12.128-20.31-17.191-20.028-10.957,5.964-14.246,17.051S691.5,268.325,691.5,268.325Z" transform="translate(-691.369 -206.562)" fill="#1a2026"/>
      </g>
    </g>
    <g id="Grupo_340" data-name="Grupo 340" transform="translate(200.105 279.702)">
      <g id="Grupo_339" data-name="Grupo 339">
        <path id="Trazado_263" data-name="Trazado 263" d="M690.1,239.907c-.008-.187,1.262,4.766,6.106,5.884s7.376-1.491,7.376-1.491-.339,3.105.174,3.88C703.759,248.18,690.535,249.6,690.1,239.907Z" transform="translate(-690.103 -239.901)" fill="#1a2026"/>
      </g>
    </g>
    <g id="Grupo_342" data-name="Grupo 342" transform="translate(233.997 276.028)">
      <g id="Grupo_341" data-name="Grupo 341">
        <path id="Trazado_264" data-name="Trazado 264" d="M719.01,238.042a8.99,8.99,0,0,1-.769,4.141c-1.694,3.385-3.222,3.547-5.012,4.493-4.395,2.325-5.937-.781-5.937-.781s.588,2.928.292,3.809C707.584,249.7,719.992,249.3,719.01,238.042Z" transform="translate(-707.292 -238.038)" fill="#1a2026"/>
      </g>
    </g>
    <g id="Grupo_344" data-name="Grupo 344" transform="translate(220.398 182.598)">
      <g id="Grupo_343" data-name="Grupo 343">
        <path id="Trazado_265" data-name="Trazado 265" d="M700.395,191.195l2.8-.542-.174,1.43-2.628.509Z" transform="translate(-700.395 -190.653)" fill="#1a2026"/>
      </g>
    </g>
    <path id="Trazado_266" data-name="Trazado 266" d="M607.866,192.439S605.4,186.958,602.7,184c.276.039.552.079.848.138,1.775,1.932,4.5,5.126,4.87,7C608.95,193.937,607.866,192.439,607.866,192.439Z" transform="translate(-574.927 -14.519)" fill="#d88d64"/>
  </g>
</svg>
